<svg width="18" height="19" viewBox="0 0 18 19" fill="none" xmlns="http://www.w3.org/2000/svg">
<path fill-rule="evenodd" clip-rule="evenodd" d="M12.7123 13.0928C13.6968 12.1084 14.2499 10.7729 14.2499 9.38037C14.2499 9.08154 14.2184 8.78906 14.1642 8.50537H15.9999V15.5005C15.9999 15.7334 15.9075 15.957 15.7428 16.1221C15.5781 16.2871 15.3546 16.3799 15.1215 16.3804H2.88019C2.39371 16.3804 1.99994 15.9868 1.99994 15.5005V8.50537H3.83569C3.78146 8.78906 3.74994 9.08154 3.74994 9.38037C3.74994 10.7729 4.30307 12.1084 5.28763 13.0928C6.27222 14.0776 7.60757 14.6304 8.99994 14.6304C10.3923 14.6304 11.7277 14.0776 12.7123 13.0928ZM10.3396 12.6138C9.91492 12.7896 9.45969 12.8804 8.99994 12.8804C8.07147 12.8809 7.18091 12.5122 6.5242 11.856C5.86749 11.1992 5.49844 10.3091 5.4982 9.38037C5.49799 8.45215 5.86658 7.56152 6.52298 6.90479C7.17935 6.24805 8.0697 5.87891 8.9982 5.87891C9.45795 5.87891 9.91321 5.96924 10.338 6.14502C10.7628 6.3208 11.1488 6.57861 11.4739 6.90381C11.7991 7.22852 12.0571 7.61426 12.2331 8.03906C12.4092 8.46387 12.4998 8.91895 12.4999 9.37891C12.5001 9.83838 12.4096 10.2939 12.2338 10.7188C12.058 11.1436 11.8002 11.5293 11.4752 11.8545C11.1502 12.1797 10.7643 12.4375 10.3396 12.6138ZM15.2982 5.70557H13.2C12.9112 5.70557 12.675 5.46924 12.6732 5.18066V3.08252C12.6732 2.94238 12.7287 2.80859 12.8275 2.70996C12.9263 2.61084 13.0602 2.55566 13.2 2.55566H15.2982C15.4379 2.55566 15.5719 2.61084 15.6707 2.70996C15.7695 2.80859 15.825 2.94238 15.825 3.08252V5.18066C15.8245 5.31982 15.7688 5.45361 15.67 5.55176C15.5713 5.65039 15.4376 5.70557 15.2982 5.70557ZM15.8057 18.1304C16.8749 18.1304 17.75 17.2554 17.75 16.1865V2.57471C17.75 1.50537 16.8749 0.630371 15.8057 0.630371H2.19421C1.12494 0.630371 0.249939 1.50537 0.249939 2.57471V16.1865C0.249939 17.2554 1.12494 18.1304 2.19421 18.1304H15.8057Z" fill="#F53838"/>
</svg>
