<svg width="17" height="14" viewBox="0 0 17 14" fill="none" xmlns="http://www.w3.org/2000/svg">
<path fill-rule="evenodd" clip-rule="evenodd" d="M15.2417 3.76812C15.2417 3.62812 15.2399 3.48462 15.2329 3.34112C15.8807 2.87288 16.4395 2.29268 16.8832 1.62786C16.2792 1.89575 15.6387 2.0721 14.9827 2.15111C15.6734 1.73667 16.1901 1.08559 16.4369 0.318856C15.7876 0.703953 15.0775 0.975589 14.3369 1.12211C13.8388 0.589275 13.1786 0.235942 12.459 0.117031C11.7393 -0.00188044 11.0006 0.120296 10.3575 0.464568C9.7145 0.80884 9.20322 1.35591 8.90318 2.02074C8.60314 2.68557 8.53115 3.43091 8.69841 4.14087C7.3828 4.07378 6.09594 3.73115 4.92115 3.13516C3.74636 2.53917 2.70982 1.70311 1.87865 0.681106C1.45349 1.40955 1.32268 2.2729 1.51298 3.0946C1.70327 3.91629 2.20029 4.63425 2.9024 5.10163C2.3599 5.08413 1.8489 4.93362 1.40265 4.68687V4.72712C1.40283 5.4912 1.66728 6.2317 2.15114 6.82305C2.635 7.4144 3.30849 7.8202 4.0574 7.97164C3.57064 8.10387 3.06017 8.12361 2.56465 8.02939C2.77683 8.68609 3.18861 9.26024 3.74259 9.6718C4.29657 10.0834 4.96516 10.3118 5.65516 10.3254C4.52291 11.2144 3.09665 11.7412 1.54615 11.7412C1.2784 11.7412 1.01415 11.7289 0.756897 11.6974C2.26884 12.6714 4.02992 13.1879 5.82841 13.1849C11.9149 13.1849 15.2417 8.14314 15.2417 3.76812Z" fill="#F53838"/>
</svg>
